# xmcd CD database file
#
# Track frame offsets:
#	150
#	15812
#	27510
#	45892
#
# Disc length: 779 seconds
#
# Revision: 0
# Processed by: cddbd v1.5.1PL2 Copyright (c) Steve Scherf et al.
# Submitted via: CDex 1.51
#
DISCID=1c030904
DTITLE=ウルフルズ - ええねん
DYEAR=2003
DGENRE=J-pop
TTITLE0=ええねん
TTITLE1=GO GO
TTITLE2=パパと呼ばないで
TTITLE3=てな感じで
EXTD=YEAR: 2003
EXTT0=
EXTT1=
EXTT2=
EXTT3=
PLAYORDER=
